#N canvas 541 200 480 469 10;
#X obj 57 48 bellpartial \$1 0;
#X msg 231 254 \; bell-params 0 100 90 7 92 95;
#X msg 229 293 \; bell-note 48 100 100;
#X floatatom 216 174 5 0 0 0 - - -;
#X obj 207 55 r bell-note-\$1;
#X obj 207 78 s bell-do-note-\$1;
#X msg 216 199 \; bell-note-1 \$1 100 100;
#X obj 57 27 r bell-do-params;
#X obj 57 27 r bell-do-params;
#X obj 57 69 bellpartial \$1 1;
#X obj 57 90 bellpartial \$1 2;
#X obj 57 111 bellpartial \$1 3;
#X obj 57 132 bellpartial \$1 4;
#X obj 57 153 bellpartial \$1 5;
#X obj 57 174 bellpartial \$1 6;
#X obj 57 195 bellpartial \$1 7;
#X obj 57 216 bellpartial \$1 8;
#X obj 57 237 bellpartial \$1 9;
#X obj 57 258 bellpartial \$1 10;
#X obj 57 279 bellpartial \$1 11;
#X obj 57 300 bellpartial \$1 12;
#X obj 57 321 bellpartial \$1 13;
#X obj 57 342 bellpartial \$1 14;
#X obj 57 363 bellpartial \$1 15;
#X connect 0 0 9 0;
#X connect 3 0 6 0;
#X connect 4 0 5 0;
#X connect 7 0 0 0;
#X connect 9 0 10 0;
#X connect 10 0 11 0;
#X connect 11 0 12 0;
#X connect 12 0 13 0;
#X connect 13 0 14 0;
#X connect 14 0 15 0;
#X connect 15 0 16 0;
#X connect 16 0 17 0;
#X connect 17 0 18 0;
#X connect 18 0 19 0;
#X connect 19 0 20 0;
#X connect 20 0 21 0;
#X connect 21 0 22 0;
#X connect 22 0 23 0;
