#N canvas 150 175 450 300 12;
#X obj 29 97 dbtorms;
#X obj 85 170 inlet~;
#X obj 29 170 line~;
#X obj 64 242 *~;
#X obj 29 127 pack 0 50;
#X text 121 146 audio in;
#X text 100 96 <-- convert from dB to linear units;
#X text 118 126 <-- make a ramp to avoid clicks or zipper noise;
#X obj 148 170 inlet~;
#X obj 154 241 *~;
#X obj 85 192 hip~ 3;
#X obj 147 192 hip~ 3;
#X obj 142 285 env~ 8192;
#X obj 142 309 moses 1;
#X obj 188 332 - 88;
#X obj 143 364 s vu-out1;
#X msg 142 333 -100;
#X floatatom 29 68 5 0 0 0 - - - 0;
#X msg 72 34 80;
#X obj 124 12 loadbang;
#X obj 53 305 dac~ 1 2;
#X connect 0 0 4 0;
#X connect 1 0 10 0;
#X connect 2 0 9 0;
#X connect 2 0 3 0;
#X connect 3 0 12 0;
#X connect 3 0 20 0;
#X connect 4 0 2 0;
#X connect 8 0 11 0;
#X connect 9 0 20 1;
#X connect 10 0 3 1;
#X connect 11 0 9 1;
#X connect 12 0 13 0;
#X connect 13 0 16 0;
#X connect 13 1 14 0;
#X connect 14 0 15 0;
#X connect 16 0 15 0;
#X connect 17 0 0 0;
#X connect 18 0 17 0;
#X connect 19 0 18 0;
