#N canvas 159 162 792 639 10;
#X obj 310 502 outlet~;
#X obj 307 441 *~;
#X obj 466 445 *~;
#X obj 366 309 phasor~;
#X obj 307 463 +~;
#X obj 421 309 wrap~;
#X obj 421 286 +~ 0.5;
#X obj 543 383 cos~;
#X obj 543 405 +~ 1;
#X obj 543 427 *~ 0.5;
#X obj 386 378 cos~;
#X obj 386 400 +~ 1;
#X obj 386 422 *~ 0.5;
#X obj 377 209 exp;
#X obj 366 286 /;
#X obj 313 236 * 0.001;
#X obj 313 258 t b f;
#X obj 377 231 - 1;
#X obj 377 253 * -1;
#X obj 308 375 *~ 0;
#X obj 466 379 *~ 0;
#X obj 308 397 +~ 2;
#X obj 466 401 +~ 2;
#X text 242 290 window;
#X obj 313 210 max 1;
#X obj 307 418 vd~ \$1;
#X obj 466 423 vd~ \$1;
#X obj 384 135 r \$2;
#X obj 246 324 r \$3;
#X text 55 18 arg 1: delay name;
#X text 55 57 arg 3: receive name for window (msec);
#X text 54 39 arg 2: receive name for pitch shift (cents);
#X text 421 138 detune;
#X obj 378 187 * 0.0005776;
#X obj 384 157 line;
#X connect 1 0 4 0;
#X connect 2 0 4 1;
#X connect 3 0 6 0;
#X connect 3 0 7 0;
#X connect 3 0 19 0;
#X connect 4 0 0 0;
#X connect 5 0 10 0;
#X connect 5 0 20 0;
#X connect 6 0 5 0;
#X connect 7 0 8 0;
#X connect 8 0 9 0;
#X connect 9 0 2 1;
#X connect 10 0 11 0;
#X connect 11 0 12 0;
#X connect 12 0 1 1;
#X connect 13 0 17 0;
#X connect 14 0 3 0;
#X connect 15 0 16 0;
#X connect 16 0 14 0;
#X connect 16 1 14 1;
#X connect 17 0 18 0;
#X connect 18 0 14 0;
#X connect 19 0 21 0;
#X connect 20 0 22 0;
#X connect 21 0 25 0;
#X connect 22 0 26 0;
#X connect 24 0 15 0;
#X connect 25 0 1 0;
#X connect 26 0 2 0;
#X connect 27 0 34 0;
#X connect 28 0 19 1;
#X connect 28 0 20 1;
#X connect 28 0 24 0;
#X connect 33 0 13 0;
#X connect 34 0 33 0;
