#N canvas 448 268 750 617 10;
#X obj 262 481 cpole~;
#X obj 477 195 t f b;
#X obj 525 196 samplerate~;
#X obj 476 222 max 1;
#X floatatom 473 286 7 0 0 0 - - -;
#X obj 474 248 expr 1 - max(0.00001 \, 1000/($f1*$f1*$f2));
#X msg 333 443 clear;
#X obj 333 419 r fb-clear;
#X obj 263 516 throw~ filt-out;
#X obj 477 170 r filt-q;
#X obj 61 355 r~ reson-send;
#X msg 156 352 0 \$1;
#X obj 126 381 *~;
#X obj 157 382 line~;
#X msg 195 351 1 \$1;
#X obj 69 125 r reset;
#X msg 69 147 0 20;
#X obj 306 345 t b f;
#X obj 286 226 expr sin($f1*6.2832/$f2);
#X obj 243 178 t f b;
#X obj 289 180 samplerate~;
#X obj 254 256 expr cos($f1*6.2832/$f2);
#X obj 244 394 *;
#X obj 283 393 *;
#X obj 171 46 r reson\$1;
#X floatatom 305 296 5 0 0 0 - - -;
#X floatatom 344 295 5 0 0 0 - - -;
#X text 353 80 args: pitch \, rise \, steady \, decay;
#X obj 171 68 unpack 0 0 0 0;
#X msg 108 149 stop;
#X obj 157 172 del;
#X obj 156 147 +;
#X obj 157 194 f;
#X obj 64 64 r bell-no-send;
#X msg 64 86 0 200;
#X connect 0 0 8 0;
#X connect 1 0 3 0;
#X connect 1 1 2 0;
#X connect 2 0 5 1;
#X connect 3 0 5 0;
#X connect 5 0 4 0;
#X connect 5 0 17 0;
#X connect 6 0 0 0;
#X connect 7 0 6 0;
#X connect 9 0 1 0;
#X connect 10 0 12 0;
#X connect 11 0 13 0;
#X connect 12 0 0 0;
#X connect 13 0 12 1;
#X connect 14 0 13 0;
#X connect 15 0 16 0;
#X connect 15 0 29 0;
#X connect 16 0 13 0;
#X connect 17 0 22 0;
#X connect 17 0 23 0;
#X connect 17 1 22 1;
#X connect 17 1 23 1;
#X connect 18 0 23 0;
#X connect 18 0 26 0;
#X connect 19 0 18 0;
#X connect 19 0 21 0;
#X connect 19 1 20 0;
#X connect 20 0 18 1;
#X connect 20 0 21 1;
#X connect 21 0 22 0;
#X connect 21 0 25 0;
#X connect 22 0 0 2;
#X connect 23 0 0 3;
#X connect 24 0 28 0;
#X connect 28 0 19 0;
#X connect 28 1 31 0;
#X connect 28 1 14 0;
#X connect 28 2 31 1;
#X connect 28 3 32 1;
#X connect 29 0 30 0;
#X connect 30 0 32 0;
#X connect 31 0 30 0;
#X connect 32 0 11 0;
#X connect 33 0 34 0;
#X connect 33 0 29 0;
#X connect 34 0 13 0;
