#N canvas 340 138 371 321 12;
#X obj 109 93 r \$1;
#X obj 109 144 osc~;
#X obj 109 119 mtof;
#X obj 109 170 +~ 0.2;
#X obj 109 219 cos~;
#X obj 108 244 hip~ 20;
#X obj 109 194 *~;
#X obj 172 200 line;
#X obj 172 176 pack 0 20;
#X obj 106 271 throw~ testosc;
#X obj 173 143 expr 0.1/(1+0.001*$f1);
#X connect 0 0 2 0;
#X connect 1 0 3 0;
#X connect 2 0 1 0;
#X connect 2 0 10 0;
#X connect 3 0 6 0;
#X connect 4 0 5 0;
#X connect 5 0 9 0;
#X connect 6 0 4 0;
#X connect 7 0 6 1;
#X connect 8 0 7 0;
#X connect 10 0 8 0;
