#N canvas 822 96 807 832 12;
#X obj 252 174 t b f;
#X obj 307 178 + 1;
#X obj 330 262 swap;
#X obj 331 286 -;
#X obj 252 151 forloop;
#X obj 252 240 forloop;
#X obj 251 266 t f f;
#X obj 251 290 swap;
#X obj 208 316 t b f;
#X obj 298 329 + 1;
#X obj 315 421 swap;
#X obj 316 445 -;
#X obj 208 392 forloop;
#X obj 207 418 t f f;
#X obj 206 442 swap;
#X obj 210 471 pack 0 0 0;
#X obj 209 501 unpack 0 0 0;
#X obj 207 601 pack 0 0 0;
#N canvas 75 109 562 530 filter-positive 0;
#X obj 143 168 unpack 0 0 0;
#X obj 101 243 t f f;
#X obj 135 133 inlet;
#X obj 91 350 pack 0 0 0 0;
#X obj 87 428 outlet;
#X obj 92 388 route 1;
#X obj 95 296 expr $f1 > 0 || ($f1 == 0 && $f2 > 0) || ($f1 == 0 &&
$f2 == 0 && $f3 > 0);
#X connect 0 0 1 0;
#X connect 0 1 3 2;
#X connect 0 1 6 1;
#X connect 0 2 3 3;
#X connect 0 2 6 2;
#X connect 1 0 6 0;
#X connect 1 1 3 1;
#X connect 2 0 0 0;
#X connect 3 0 5 0;
#X connect 5 0 4 0;
#X connect 6 0 3 0;
#X restore 208 625 pd filter-positive;
#X obj 260 691 random 100;
#X obj 207 656 t l b;
#X obj 206 690 spigot;
#X obj 259 715 < 100;
#X obj 352 707 clip 2 100;
#X obj 64 613 b;
#X obj 61 636 f;
#X obj 92 637 + 1;
#X obj 45 666 f;
#X floatatom 45 688 5 0 0 0 - - -;
#X msg 98 609 1;
#X obj 100 585 b;
#X obj 85 694 >= 16;
#X obj 131 693 r osc-n;
#X obj 131 715 line;
#X obj 185 110 t b b f b;
#X msg 139 92 5;
#X obj 70 193 b;
#X obj 80 718 sel 1;
#X obj 352 668 inlet;
#X text 400 668 density \, percent;
#X obj 193 75 inlet;
#X obj 209 764 outlet;
#X obj 673 595 inlet;
#X msg 673 620 seed \$1;
#X obj 483 162 inlet;
#X obj 483 201 clip 0 100;
#X obj 575 161 inlet;
#X obj 575 200 clip 0 100;
#X text 690 554 seed;
#X obj 483 226 / 100;
#X obj 574 227 / 100;
#X floatatom 492 298 5 0 0 0 - - -;
#X floatatom 552 297 5 0 0 0 - - -;
#X text 400 475 map 0 \, 1 \, 2 \, .. to 0 \, 1 \, -1 \, 2 \, -2 \,
...;
#X floatatom 467 383 5 0 0 0 - - -;
#X msg 469 358 0;
#X msg 512 357 1;
#X msg 550 358 2;
#X floatatom 464 434 5 0 0 0 - - -;
#X obj 468 410 expr ($f1&1)*($f1+0.5) - $f1*0.5;
#X obj 308 501 expr ($f1&1)*($f1+0.5) - $f1*0.5;
#X obj 240 530 expr ($f1&1)*($f1+0.5) - $f1*0.5;
#X obj 210 555 expr ($f1&1)*($f1+0.5) - $f1*0.5;
#X connect 0 0 5 0;
#X connect 0 1 2 1;
#X connect 0 1 1 0;
#X connect 1 0 5 2;
#X connect 2 0 3 0;
#X connect 2 1 3 1;
#X connect 3 0 7 1;
#X connect 4 0 0 0;
#X connect 5 0 6 0;
#X connect 6 0 7 0;
#X connect 6 1 2 0;
#X connect 7 0 8 0;
#X connect 7 1 15 2;
#X connect 8 0 12 0;
#X connect 8 1 9 0;
#X connect 8 1 10 1;
#X connect 9 0 12 2;
#X connect 10 0 11 0;
#X connect 10 1 11 1;
#X connect 11 0 14 1;
#X connect 12 0 13 0;
#X connect 13 0 14 0;
#X connect 13 1 10 0;
#X connect 14 0 15 0;
#X connect 14 1 15 1;
#X connect 15 0 16 0;
#X connect 16 0 62 0;
#X connect 16 1 61 0;
#X connect 16 2 60 0;
#X connect 17 0 18 0;
#X connect 18 0 20 0;
#X connect 19 0 22 0;
#X connect 20 0 21 0;
#X connect 20 1 19 0;
#X connect 21 0 24 0;
#X connect 21 0 41 0;
#X connect 22 0 21 1;
#X connect 23 0 22 1;
#X connect 24 0 25 0;
#X connect 25 0 26 0;
#X connect 25 0 27 1;
#X connect 25 0 31 0;
#X connect 26 0 25 1;
#X connect 27 0 28 0;
#X connect 29 0 25 1;
#X connect 30 0 29 0;
#X connect 31 0 37 0;
#X connect 32 0 33 0;
#X connect 33 0 31 1;
#X connect 34 0 27 0;
#X connect 34 1 4 0;
#X connect 34 2 4 2;
#X connect 34 3 30 0;
#X connect 35 0 34 0;
#X connect 36 0 4 3;
#X connect 36 0 5 3;
#X connect 36 0 12 3;
#X connect 37 0 36 0;
#X connect 38 0 23 0;
#X connect 40 0 34 0;
#X connect 42 0 43 0;
#X connect 43 0 19 0;
#X connect 44 0 45 0;
#X connect 45 0 49 0;
#X connect 46 0 47 0;
#X connect 47 0 50 0;
#X connect 49 0 51 0;
#X connect 50 0 52 0;
#X connect 54 0 59 0;
#X connect 55 0 54 0;
#X connect 56 0 54 0;
#X connect 57 0 54 0;
#X connect 59 0 58 0;
#X connect 60 0 17 2;
#X connect 61 0 17 1;
#X connect 62 0 17 0;
